<svg xmlns="http://www.w3.org/2000/svg" version="1.1" xmlns:xlink="http://www.w3.org/1999/xlink" xmlns:svgjs="http://svgjs.dev/svgjs" width="100" height="100" viewBox="0 0 1500 1919"><g transform="matrix(1,0,0,1,0.9085601693059289,0.7769230769229125)"><svg viewBox="0 0 193 247" data-background-color="#d6061e" preserveAspectRatio="xMidYMid meet" height="1919" width="1500" xmlns="http://www.w3.org/2000/svg" xmlns:xlink="http://www.w3.org/1999/xlink"><g id="tight-bounds" transform="matrix(1,0,0,1,-0.11690140845070118,-0.0999999999999801)"><svg viewBox="0 0 193.2338028169014 247.19999999999996" height="247.19999999999996" width="193.2338028169014"><g><svg viewBox="0 0 193.2338028169014 247.19999999999996" height="247.19999999999996" width="193.2338028169014"><g><svg viewBox="0 0 193.2338028169014 247.19999999999996" height="247.19999999999996" width="193.2338028169014"><g id="textblocktransform"><svg viewBox="0 0 193.2338028169014 247.19999999999996" height="247.19999999999996" width="193.2338028169014" id="textblock"><g><svg viewBox="0 0 193.2338028169014 247.19999999999996" height="247.19999999999996" width="193.2338028169014"><g transform="matrix(1,0,0,1,0,0)"><svg width="193.2338028169014" viewBox="1.4 -27 22.200000000000003 28.4" height="247.19999999999996" data-palette-color="#f0f0f0"><path d="M1.4-1.75L1.4-8.45 5.1-8.45 5.1-2.3 20-2.3 20-11 4.55-11 4.55-14.1 1.4-14.1 1.4-23.9 4.55-23.9 4.55-27 20.5-27 20.5-23.9 23.6-23.9 23.6-17.2 20-17.2 20-23.4 5.1-23.4 5.1-14.65 20.5-14.65 20.5-11.55 23.6-11.55 23.6-1.75 20.5-1.75 20.5 1.4 4.55 1.4 4.55-1.75 1.4-1.75Z" opacity="1" transform="matrix(1,0,0,1,0,0)" fill="#f0f0f0" class="wordmark-text-0" data-fill-palette-color="primary" id="text-0"></path></svg></g></svg></g></svg></g></svg></g><g></g></svg></g><defs></defs></svg><rect width="193.2338028169014" height="247.19999999999996" fill="none" stroke="none" visibility="hidden"></rect></g></svg></g></svg>